<svg xmlns="http://www.w3.org/2000/svg" version="1.1" xmlns:xlink="http://www.w3.org/1999/xlink" xmlns:svgjs="http://svgjs.com/svgjs" width="1920" height="1080" preserveAspectRatio="none" viewBox="0 0 1920 1080"><g mask="url(&quot;#SvgjsMask1099&quot;)" fill="none"><rect width="1920" height="1080" x="0" y="0" fill="url(#SvgjsLinearGradient1100)"></rect><path d="M2048 1080L0 1080 L0 555.43Q-68.51 390.91, 96 322.4Q269 399.39, 192 572.39Q165.06 385.46, 352 358.52Q532.66 379.18, 512 559.84Q465.9 417.74, 608 371.64Q669.26 272.9, 768 334.16Q892.49 298.65, 928 423.14Q962.57 361.71, 1024 396.28Q1098.22 374.5, 1120 448.72Q1189.41 358.13, 1280 427.55Q1378.29 365.84, 1440 464.13Q1443.64 371.77, 1536 375.41Q1599.63 279.04, 1696 342.67Q1724.73 275.4, 1792 304.14Q1864.89 281.03, 1888 353.92Q1978.11 284.03, 2048 374.14z" fill="#182f5d"></path><path d="M2080 1080L0 1080 L0 634.27Q56.78 531.05, 160 587.83Q210.03 477.87, 320 527.9Q415.88 463.78, 480 559.67Q553.87 473.53, 640 547.4Q703.38 514.78, 736 578.16Q816.5 562.66, 832 643.17Q885.8 536.97, 992 590.78Q1058.31 497.09, 1152 563.4Q1238.14 553.55, 1248 639.69Q1305.8 537.49, 1408 595.29Q1464.13 491.42, 1568 547.56Q1645.03 528.59, 1664 605.61Q1761.18 542.8, 1824 639.98Q1900.28 620.26, 1920 696.54Q1960.51 577.05, 2080 617.56z" fill="#25467d"></path><path d="M1984 1080L0 1080 L0 778.37Q134.8 817.17, 96 951.98Q75.42 835.4, 192 814.82Q249.87 712.69, 352 770.56Q474.47 733.02, 512 855.49Q512.93 696.42, 672 697.35Q825.45 754.8, 768 908.25Q754.4 734.65, 928 721.05Q996.23 629.27, 1088 697.5Q1217.17 666.67, 1248 795.84Q1308.56 696.4, 1408 756.96Q1497.9 686.87, 1568 776.77Q1682.45 795.22, 1664 909.67Q1643.06 728.72, 1824 707.78Q1898.2 621.98, 1984 696.18z" fill="#356cb1"></path><path d="M2048 1080L0 1080 L0 1075.96Q80.95 1060.91, 96 1141.86Q108.92 994.78, 256 1007.69Q282.88 874.57, 416 901.44Q472.18 861.62, 512 917.8Q619.26 929.06, 608 1036.32Q602.78 935.1, 704 929.87Q745.51 875.38, 800 916.9Q871.54 828.44, 960 899.98Q1097.35 877.33, 1120 1014.68Q1132.53 931.2, 1216 943.73Q1286.74 854.47, 1376 925.21Q1466.06 919.27, 1472 1009.33Q1613.82 991.15, 1632 1132.98Q1697.98 1038.96, 1792 1104.94Q1815.22 1032.16, 1888 1055.39Q1899.08 906.47, 2048 917.55z" fill="white"></path></g><defs><mask id="SvgjsMask1099"><rect width="1920" height="1080" fill="#ffffff"></rect></mask><linearGradient x1="50%" y1="100%" x2="50%" y2="0%" gradientUnits="userSpaceOnUse" id="SvgjsLinearGradient1100"><stop stop-color="#0e2a47" offset="0"></stop><stop stop-color="#00459e" offset="1"></stop></linearGradient></defs></svg>